:FULLY-SPECIFIED
:FORCE-ALL-JOINTS-BE-3DOF
:DEGREES
1121
root 0.913765 14.4975 -28.1191 5.75906 -7.48054 2.51771
lfemur -42.7165 12.8196 -27.5533
ltibia 74.7799 0 0
lfoot -23.347 27.3272 0.0216836
ltoes -13.6297 0 0
rfemur -46.1116 -11.808 16.9424
rtibia 102.665 0 0
rfoot -8.56883 -5.24943 0.0176375
rtoes -13.9175 0 0
lowerback 14.6807 0.491668 -9.50118
upperback -1.05259 -0.847842 1.93459
thorax -9.2929 0.129703 7.73956
lowerneck -6.29511 1.44385 -1.32093
upperneck 2.65227 1.96177 1.93852
head 1.97805 0.991097 0.852737
lclavicle -7.02643e-14 -1.38394e-14 2.22859e-30
lhumerus 70.0146 -15.0249 45.5666
lradius 83.0604 0 0
lwrist 32.86 0 0
lhand -33.6368 36.1616 -0.425585
lfingers 7.12502 0 0
lthumb -6.82989 65.9354 -0.417013
rclavicle -7.02643e-14 -1.38394e-14 2.22859e-30
rhumerus -40.1408 25.2746 -93.0085
rradius 86.096 0 0
rwrist -43.5955 0 0
rhand -20.9992 -50.1594 -0.189464
rfingers 7.12502 0 0
rthumb 5.37564 -80.0179 -0.188226
1122
root 0.881864 14.4935 -27.9232 5.71977 -7.39856 2.48242
lfemur -42.613 12.8694 -27.3799
ltibia 74.7316 0 0
lfoot -23.3511 27.2704 0.0138171
ltoes -13.6684 0 0
rfemur -45.9147 -11.8205 16.841
rtibia 102.213 0 0
rfoot -8.5564 -5.27773 0.0321106
rtoes -13.9415 0 0
lowerback 14.6616 0.502366 -9.45893
upperback -1.04937 -0.824036 1.93712
thorax -9.28192 0.138315 7.71266
lowerneck -6.27406 1.40336 -1.35883
upperneck 2.69808 1.90875 1.97775
head 1.99646 0.964258 0.86781
lclavicle -6.91525e-14 -1.34004e-14 1.67571e-30
lhumerus 69.5368 -15.2522 45.6365
lradius 83.1813 0 0
lwrist 32.8768 0 0
lhand -33.536 36.0224 -0.446966
lfingers 7.12502 0 0
lthumb -6.73268 65.7945 -0.437966
rclavicle -6.91525e-14 -1.34004e-14 1.67571e-30
rhumerus -39.7622 25.4176 -92.6553
rradius 86.2069 0 0
rwrist -43.4036 0 0
rhand -21.0442 -50.0353 -0.185577
rfingers 7.12502 0 0
rthumb 5.33215 -79.8905 -0.184455
1123
root 0.849964 14.4894 -27.7272 5.67375 -7.30153 2.44264
lfemur -42.49 12.9256 -27.1803
ltibia 74.6747 0 0
lfoot -23.3565 27.2063 0.00478666
ltoes -13.7126 0 0
rfemur -45.6899 -11.8345 16.7239
rtibia 101.692 0 0
rfoot -8.54103 -5.30891 0.0487634
rtoes -13.9678 0 0
lowerback 14.6396 0.514909 -9.41086
upperback -1.04559 -0.796477 1.93969
thorax -9.26925 0.148321 7.68161
lowerneck -6.24961 1.35578 -1.40324
upperneck 2.75098 1.84641 2.02353
head 2.01775 0.932718 0.885411
lclavicle -6.78707e-14 -1.28966e-14 1.05183e-30
lhumerus 68.9789 -15.5173 45.7217
lradius 83.3216 0 0
lwrist 32.8978 0 0
lhand -33.4187 35.8608 -0.471561
lfingers 7.12502 0 0
lthumb -6.61947 65.6309 -0.462071
rclavicle -6.78707e-14 -1.28966e-14 1.05183e-30
rhumerus -39.317 25.5812 -92.2431
rradius 86.3339 0 0
rwrist -43.1788 0 0
rhand -21.0974 -49.8927 -0.181132
rfingers 7.12502 0 0
rthumb 5.28074 -79.7442 -0.180143
1124
root 0.818064 14.4854 -27.5313 5.61869 -7.18108 2.40099
lfemur -42.3358 12.9861 -26.9541
ltibia 74.6048 0 0
lfoot -23.3649 27.1383 -0.00534925
ltoes -13.7618 0 0
rfemur -45.4427 -11.8498 16.5894
rtibia 101.1 0 0
rfoot -8.51941 -5.33881 0.067612
rtoes -13.9926 0 0
lowerback 14.6147 0.529983 -9.35854
upperback -1.04097 -0.764605 1.94123
thorax -9.2547 0.160023 7.64602
lowerneck -6.22104 1.29799 -1.45665
upperneck 2.81182 1.7706 2.07808
head 2.04235 0.894408 0.906398
lclavicle -6.64092e-14 -1.23307e-14 3.65673e-31
lhumerus 68.3179 -15.8329 45.8301
lradius 83.4854 0 0
lwrist 32.9288 0 0
lhand -33.2804 35.6725 -0.50017
lfingers 7.12502 0 0
lthumb -6.48606 65.4402 -0.49011
rclavicle -6.64092e-14 -1.23307e-14 3.65673e-31
rhumerus -38.7798 25.7696 -91.7568
rradius 86.4756 0 0
rwrist -42.9081 0 0
rhand -21.1634 -49.7324 -0.176509
rfingers 7.12502 0 0
rthumb 5.21707 -79.5797 -0.175668
1125
root 0.786163 14.4814 -27.3354 5.5522 -7.02875 2.36002
lfemur -42.1386 13.0488 -26.7008
ltibia 74.5176 0 0
lfoot -23.3783 27.0702 -0.016536
ltoes -13.8154 0 0
rfemur -45.1782 -11.8662 16.436
rtibia 100.435 0 0
rfoot -8.48821 -5.36325 0.0886723
rtoes -14.012 0 0
lowerback 14.5869 0.548276 -9.30352
upperback -1.03527 -0.727859 1.94067
thorax -9.2381 0.173722 7.6055
lowerneck -6.18764 1.22681 -1.52158
upperneck 2.88136 1.67725 2.14355
head 2.07066 0.84726 0.931621
lclavicle -6.47582e-14 -1.17057e-14 -3.73395e-31
lhumerus 67.5302 -16.2115 45.9705
lradius 83.6769 0 0
lwrist 32.9752 0 0
lhand -33.1168 35.4531 -0.533516
lfingers 7.12502 0 0
lthumb -6.32821 65.218 -0.522793
rclavicle -6.47582e-14 -1.17057e-14 -3.73395e-31
rhumerus -38.125 25.9859 -91.1809
rradius 86.6306 0 0
rwrist -42.5787 0 0
rhand -21.2465 -49.5549 -0.172055
rfingers 7.12502 0 0
rthumb 5.13682 -79.3975 -0.171374
1126
root 0.754263 14.4773 -27.1395 5.47193 -6.8361 2.32223
lfemur -41.8867 13.1113 -26.4197
ltibia 74.4087 0 0
lfoot -23.3984 27.0053 -0.0287221
ltoes -13.8728 0 0
rfemur -44.902 -11.8834 16.2619
rtibia 99.6934 0 0
rfoot -8.4441 -5.37805 0.111957
rtoes -14.0223 0 0
lowerback 14.5562 0.570476 -9.24739
upperback -1.02824 -0.685677 1.93694
thorax -9.21929 0.189718 7.55968
lowerneck -6.14869 1.13915 -1.60051
upperneck 2.96039 1.5622 2.22213
head 2.10309 0.789202 0.961928
lclavicle -6.29079e-14 -1.10245e-14 -1.15539e-30
lhumerus 66.5914 -16.665 46.1527
lradius 83.9002 0 0
lwrist 33.0427 0 0
lhand -32.9235 35.1981 -0.572228
lfingers 7.12502 0 0
lthumb -6.14171 64.9596 -0.560734
rclavicle -6.29079e-14 -1.10245e-14 -1.15539e-30
rhumerus -37.3263 26.2324 -90.4993
rradius 86.7973 0 0
rwrist -42.1776 0 0
rhand -21.3512 -49.3609 -0.168076
rfingers 7.12502 0 0
rthumb 5.03565 -79.1982 -0.167566
